<?xml version="1.0" standalone="no"?>
<!DOCTYPE svg PUBLIC "-//W3C//DTD SVG 20010904//EN"
 "http://www.w3.org/TR/2001/REC-SVG-20010904/DTD/svg10.dtd">
<svg version="1.0" xmlns="http://www.w3.org/2000/svg"
 width="1284.000000pt" height="466.000000pt" viewBox="0 0 1284.000000 466.000000"
 preserveAspectRatio="xMidYMid meet">

<g transform="translate(0.000000,466.000000) scale(0.100000,-0.100000)"
fill="#000000" stroke="none">
<path d="M1422 3166 l-1127 -1125 140 -141 140 -140 1127 1127 1128 1128 -133
135 c-72 74 -136 136 -140 138 -4 2 -515 -503 -1135 -1122z"/>
<path d="M2755 3820 l-140 -140 960 -960 960 -960 140 140 140 140 -960 960
-960 960 -140 -140z"/>
<path d="M11765 3326 c-128 -41 -188 -117 -189 -241 -1 -123 46 -169 243 -235
109 -36 135 -56 115 -87 -25 -40 -142 -24 -257 34 -27 13 -50 23 -52 21 -5 -6
-53 -104 -68 -141 -16 -37 -16 -37 11 -51 99 -51 272 -81 372 -65 145 23 220
103 220 236 0 124 -46 172 -219 234 -143 50 -151 54 -151 85 0 55 94 56 210 0
41 -20 56 -23 62 -14 13 20 78 147 78 153 0 11 -103 52 -171 69 -77 19 -148
20 -204 2z"/>
<path d="M4390 3240 l0 -90 110 0 110 0 0 -295 0 -295 105 0 105 0 0 295 0
295 110 0 110 0 0 90 0 90 -325 0 -325 0 0 -90z"/>
<path d="M5130 2945 l0 -385 100 0 99 0 3 153 3 152 133 3 132 3 0 -156 0
-155 105 0 105 0 0 385 0 385 -105 0 -105 0 0 -140 0 -140 -135 0 -135 0 0
140 0 140 -100 0 -100 0 0 -385z"/>
<path d="M5950 2945 l0 -385 270 0 270 0 0 90 0 90 -167 2 -168 3 -3 63 -3 62
146 0 145 0 0 85 0 85 -145 0 -145 0 0 55 0 55 165 0 165 0 0 90 0 90 -265 0
-265 0 0 -385z"/>
<path d="M6850 2944 l0 -386 233 4 c209 4 238 7 288 26 63 25 91 51 114 104
39 94 -7 212 -96 249 -36 15 -36 20 1 42 44 26 73 90 73 159 0 46 -5 67 -29
104 -50 81 -62 84 -341 84 l-243 0 0 -386z m392 199 c10 -9 18 -30 18 -49 0
-50 -28 -64 -127 -64 l-83 0 0 65 0 65 87 0 c66 0 91 -4 105 -17z m32 -295 c9
-12 16 -32 16 -43 0 -11 -7 -31 -16 -43 -14 -20 -23 -22 -120 -22 l-104 0 0
65 0 65 104 0 c97 0 106 -2 120 -22z"/>
<path d="M7590 3097 c0 -261 9 -317 62 -400 37 -57 113 -111 181 -128 73 -18
203 -8 262 21 67 33 129 99 157 168 21 53 23 75 26 315 l3 257 -100 0 -101 0
0 -205 c0 -247 -8 -296 -60 -347 -32 -33 -44 -38 -83 -38 -35 0 -53 6 -78 27
-57 49 -62 74 -67 331 l-4 232 -99 0 -99 0 0 -233z"/>
<path d="M8410 2945 l0 -385 105 0 105 0 0 385 0 385 -105 0 -105 0 0 -385z"/>
<path d="M8760 2945 l0 -385 280 0 280 0 0 90 0 90 -177 2 -178 3 -3 293 -2
292 -100 0 -100 0 0 -385z"/>
<path d="M9400 2946 l0 -386 148 0 c81 0 178 5 216 10 130 19 231 92 283 204
26 56 28 71 28 176 0 103 -3 121 -26 171 -37 79 -90 133 -167 171 l-66 33
-208 3 -208 3 0 -385z m391 181 c51 -33 79 -97 79 -177 -1 -137 -71 -210 -205
-210 l-55 0 0 205 0 205 74 0 c59 0 79 -4 107 -23z"/>
<path d="M10190 2945 l0 -385 270 0 270 0 0 90 0 90 -170 0 -170 0 0 65 0 65
140 0 140 0 0 85 0 85 -140 0 -140 0 0 55 0 55 165 0 165 0 0 90 0 90 -265 0
-265 0 0 -385z"/>
<path d="M10840 2945 l0 -385 100 0 100 0 0 121 0 120 47 -3 47 -3 71 -115 72
-115 117 -3 c65 -1 116 1 113 5 -3 4 -41 68 -87 142 l-81 134 29 31 c54 56 76
113 76 191 0 112 -55 199 -154 244 -40 19 -65 21 -247 21 l-203 0 0 -385z
m366 197 c37 -24 44 -96 13 -136 -19 -24 -26 -26 -100 -26 l-79 0 0 85 0 85
78 0 c42 0 82 -4 88 -8z"/>
</g>
</svg>
