<?xml version="1.0" standalone="no"?>
<!DOCTYPE svg PUBLIC "-//W3C//DTD SVG 20010904//EN"
 "http://www.w3.org/TR/2001/REC-SVG-20010904/DTD/svg10.dtd">
<svg version="1.0" xmlns="http://www.w3.org/2000/svg"
 width="292.000000pt" height="172.000000pt" viewBox="0 0 292.000000 172.000000"
 preserveAspectRatio="xMidYMid meet">

<g transform="translate(0.000000,172.000000) scale(0.100000,-0.100000)"
fill="#000000" stroke="none">
<path d="M1418 1111 l-37 -26 -1 -87 c0 -51 4 -88 10 -88 5 0 7 7 4 15 -4 8
-1 15 6 15 6 0 8 -4 5 -10 -3 -5 -2 -10 4 -10 17 0 21 16 23 82 1 43 3 55 8
38 11 -37 22 -4 18 52 l-3 44 -37 -25z m32 -25 c0 -3 -4 -8 -10 -11 -5 -3 -10
-1 -10 4 0 6 5 11 10 11 6 0 10 -2 10 -4z m-40 -36 c0 -11 -4 -20 -8 -20 -4 0
-8 9 -9 20 -1 11 2 20 8 20 5 0 9 -9 9 -20z m-2 -65 c-1 -19 -4 -35 -8 -35 -3
0 -6 16 -7 35 0 19 3 35 8 35 5 0 8 -16 7 -35z"/>
<path d="M1500 1036 c0 -53 4 -96 9 -96 5 0 16 -3 24 -6 11 -4 17 2 20 18 4
21 4 20 6 -4 0 -16 6 -28 11 -28 6 0 10 31 10 73 0 64 -3 76 -22 93 -61 53
-58 56 -58 -50z m27 -8 c-3 -7 -5 -2 -5 12 0 14 2 19 5 13 2 -7 2 -19 0 -25z
m30 -40 c-3 -7 -5 -2 -5 12 0 14 2 19 5 13 2 -7 2 -19 0 -25z m-30 -10 c-3 -7
-5 -2 -5 12 0 14 2 19 5 13 2 -7 2 -19 0 -25z"/>
<path d="M1473 1058 c2 -7 -5 -24 -17 -37 -11 -13 -16 -21 -9 -17 8 4 13 -6
16 -31 l4 -38 1 43 c1 27 6 41 12 37 6 -4 10 5 8 24 -1 17 -6 31 -11 31 -5 0
-7 -6 -4 -12z"/>
<path d="M1236 1049 c-241 -35 -396 -131 -396 -244 0 -64 77 -153 186 -215 75
-42 76 -37 2 13 -223 152 -148 334 167 407 44 10 101 21 128 25 26 3 47 10 47
16 0 11 -51 10 -134 -2z"/>
<path d="M1592 1055 c4 -5 47 -11 95 -15 49 -4 111 -10 138 -13 42 -5 40 -4
-15 8 -80 16 -228 30 -218 20z"/>
<path d="M1327 1007 c-26 -20 -28 -27 -24 -77 l3 -55 2 58 c2 69 21 77 24 10
l1 -48 4 45 c6 71 16 80 23 20 l7 -55 1 63 c1 34 -1 62 -5 62 -5 0 -21 -10
-36 -23z"/>
<path d="M1592 968 c1 -57 2 -59 5 -15 4 44 6 46 24 36 31 -16 37 0 9 21 -14
11 -28 20 -32 20 -5 0 -7 -28 -6 -62z"/>
<path d="M1898 1013 c7 -3 16 -2 19 1 4 3 -2 6 -13 5 -11 0 -14 -3 -6 -6z"/>
<path d="M1351 889 c-98 -38 -106 -39 -159 -29 -74 13 -77 13 -61 -7 12 -16
11 -16 -8 0 -21 18 -22 18 -34 -5 -7 -13 -19 -34 -27 -48 -10 -17 -6 -14 14 8
l29 34 19 -21 c23 -25 44 -28 25 -3 -7 9 -1 6 14 -7 30 -27 37 -41 10 -20 -17
13 -17 12 0 -7 17 -21 27 -21 100 -6 23 5 67 34 64 43 -1 6 26 31 61 56 34 24
62 42 62 40 0 -3 -27 -25 -60 -48 -33 -23 -58 -44 -56 -46 3 -3 36 14 75 37
l70 42 88 -53 c48 -29 99 -60 113 -68 21 -14 23 -14 16 -1 -7 13 -6 13 6 0 25
-28 75 -17 118 25 l41 40 25 -30 25 -30 -23 42 -23 42 -30 -27 -30 -27 24 28
c28 31 28 30 -57 17 -76 -13 -122 4 -122 45 0 16 -6 25 -15 25 -8 0 -15 -9
-15 -21 0 -22 -9 -21 -79 7 -45 19 -47 18 -20 -7 l24 -21 -30 19 c-42 27 -57
26 -174 -18z m269 -45 c0 -3 -13 4 -30 16 -16 12 -30 24 -30 26 0 3 14 -4 30
-16 17 -12 30 -24 30 -26z m31 -21 c13 -16 12 -17 -3 -4 -17 13 -22 21 -14 21
2 0 10 -8 17 -17z m169 -16 c0 -2 -10 -12 -22 -23 l-23 -19 19 23 c18 21 26
27 26 19z"/>
<path d="M1465 820 c-3 -5 -1 -10 4 -10 6 0 11 5 11 10 0 6 -2 10 -4 10 -3 0
-8 -4 -11 -10z"/>
<path d="M1490 820 c0 -5 5 -10 10 -10 6 0 10 5 10 10 0 6 -4 10 -10 10 -5 0
-10 -4 -10 -10z"/>
<path d="M1460 790 c0 -5 5 -10 10 -10 6 0 10 5 10 10 0 6 -4 10 -10 10 -5 0
-10 -4 -10 -10z"/>
<path d="M1490 790 c0 -5 5 -10 10 -10 6 0 10 5 10 10 0 6 -4 10 -10 10 -5 0
-10 -4 -10 -10z"/>
<path d="M1091 773 c0 -13 2 -14 6 -4 5 11 7 11 14 0 7 -11 9 -10 9 4 0 9 -7
17 -15 17 -8 0 -15 -8 -14 -17z"/>
<path d="M1860 775 c0 -8 4 -15 8 -15 5 0 9 7 9 15 0 8 -4 15 -9 15 -4 0 -8
-7 -8 -15z"/>
<path d="M1253 733 c130 -2 344 -2 475 0 130 1 23 2 -238 2 -261 0 -368 -1
-237 -2z"/>
<path d="M1883 713 c-20 -7 -15 -23 10 -34 l22 -10 -22 5 c-13 2 -23 0 -23 -5
0 -5 14 -9 30 -9 36 0 40 22 8 39 -23 11 -23 11 2 5 19 -4 22 -3 10 5 -16 12
-19 12 -37 4z"/>
<path d="M1040 685 c0 -16 6 -25 15 -25 9 0 15 9 15 25 0 16 -6 25 -15 25 -9
0 -15 -9 -15 -25z"/>
<path d="M1110 685 c0 -16 6 -25 16 -25 8 0 12 5 9 10 -3 6 1 10 10 10 9 0 13
-4 10 -10 -3 -5 1 -10 9 -10 10 0 16 9 16 25 0 26 -24 35 -34 13 -5 -10 -7
-10 -12 0 -10 21 -24 13 -24 -13z"/>
<path d="M1200 685 c0 -22 4 -25 33 -24 21 1 25 3 11 6 -16 3 -20 9 -17 24 4
13 0 19 -11 19 -10 0 -16 -9 -16 -25z"/>
<path d="M1245 699 c-4 -6 -5 -12 -2 -15 2 -3 7 2 10 11 7 17 1 20 -8 4z"/>
<path d="M1318 685 c-5 -22 -2 -25 27 -25 17 0 34 3 37 6 11 10 -4 44 -19 44
-10 0 -14 -7 -10 -20 3 -11 1 -20 -4 -20 -5 0 -9 9 -9 20 0 29 -17 25 -22 -5z"/>
<path d="M1400 685 c0 -21 5 -25 30 -25 17 0 30 3 31 8 0 4 2 15 4 25 2 9 -1
17 -6 17 -5 0 -9 -9 -9 -20 0 -11 -7 -20 -15 -20 -8 0 -15 9 -15 20 0 11 -4
20 -10 20 -5 0 -10 -11 -10 -25z"/>
<path d="M1488 685 c-4 -19 -1 -25 12 -25 13 0 16 6 12 25 -2 14 -8 25 -12 25
-4 0 -10 -11 -12 -25z"/>
<path d="M1538 685 c-5 -23 -2 -25 31 -24 23 1 28 3 14 6 -15 3 -23 12 -23 24
0 28 -17 23 -22 -6z"/>
<path d="M1610 684 c0 -23 3 -25 38 -22 29 2 37 7 37 23 0 12 -8 21 -20 23
-15 2 -17 1 -6 -6 16 -11 7 -32 -14 -32 -8 0 -12 8 -10 20 2 13 -2 20 -11 20
-8 0 -14 -10 -14 -26z"/>
<path d="M1705 685 c0 -22 4 -25 35 -24 23 1 28 3 13 6 -15 3 -23 12 -23 24 0
10 -6 19 -12 19 -7 0 -13 -11 -13 -25z"/>
<path d="M1780 685 c0 -16 6 -25 16 -25 8 0 12 5 9 10 -3 6 -2 10 4 10 5 0 13
-4 16 -10 11 -17 20 -11 21 15 2 26 -20 35 -29 13 -4 -10 -6 -10 -6 0 -2 24
-31 12 -31 -13z"/>
<path d="M1253 643 c130 -2 344 -2 475 0 130 1 23 2 -238 2 -261 0 -368 -1
-237 -2z"/>
<path d="M1081 608 c0 -21 1 -22 8 -3 8 18 9 18 14 2 4 -15 5 -15 3 -1 -2 27
-26 29 -25 2z"/>
<path d="M1131 620 c6 -4 7 -10 3 -12 -5 -3 -3 -3 4 -2 6 2 12 -1 12 -7 0 -6
5 -7 10 -4 6 4 8 10 5 15 -3 4 1 10 7 12 7 3 -2 5 -20 5 -18 0 -28 -4 -21 -7z"/>
<path d="M1253 614 c-5 -13 -8 -13 -15 -2 -8 11 -9 10 -6 -1 6 -22 38 -22 38
0 0 23 -8 25 -17 3z"/>
<path d="M1292 610 c0 -14 2 -19 5 -12 2 6 2 18 0 25 -3 6 -5 1 -5 -13z"/>
<path d="M1393 615 c-3 -9 -3 -19 1 -22 3 -4 6 1 6 11 0 10 5 14 12 10 7 -4 8
-3 4 4 -10 16 -15 15 -23 -3z"/>
<path d="M1432 610 c0 -14 2 -19 5 -12 2 6 2 18 0 25 -3 6 -5 1 -5 -13z"/>
<path d="M1452 610 c0 -14 2 -19 5 -12 2 6 2 18 0 25 -3 6 -5 1 -5 -13z"/>
<path d="M1470 609 c0 -18 2 -19 15 -9 15 12 12 30 -6 30 -5 0 -9 -10 -9 -21z"/>
<path d="M1553 615 c-3 -9 -3 -18 -1 -21 3 -3 8 4 11 16 6 23 -1 27 -10 5z"/>
<path d="M1592 610 c0 -14 2 -19 5 -12 2 6 2 18 0 25 -3 6 -5 1 -5 -13z"/>
<path d="M1637 610 c3 -11 7 -20 8 -20 1 0 5 9 8 20 3 12 0 20 -8 20 -8 0 -11
-8 -8 -20z"/>
<path d="M1739 628 c-7 -23 -4 -35 7 -35 8 0 14 4 14 9 0 4 -5 8 -11 8 -5 0
-7 5 -4 10 3 6 4 10 1 10 -3 0 -6 -1 -7 -2z"/>
<path d="M1783 615 c-3 -9 -3 -19 1 -22 3 -4 6 1 6 10 0 8 6 18 13 20 9 4 9 6
-1 6 -7 1 -15 -6 -19 -14z"/>
<path d="M1822 610 c0 -14 2 -19 5 -12 2 6 2 18 0 25 -3 6 -5 1 -5 -13z"/>
<path d="M1860 613 c0 -11 6 -20 14 -20 16 0 14 29 -2 35 -7 2 -12 -5 -12 -15z"/>
<path d="M1900 621 c0 -6 4 -12 8 -15 5 -3 9 1 9 9 0 8 -4 15 -9 15 -4 0 -8
-4 -8 -9z"/>
<path d="M1190 605 c0 -8 2 -15 4 -15 2 0 6 7 10 15 3 8 1 15 -4 15 -6 0 -10
-7 -10 -15z"/>
<path d="M1360 609 c0 -5 5 -7 10 -4 6 3 10 8 10 11 0 2 -4 4 -10 4 -5 0 -10
-5 -10 -11z"/>
<path d="M1611 604 c0 -11 3 -14 6 -6 3 7 2 16 -1 19 -3 4 -6 -2 -5 -13z"/>
<path d="M1670 609 c0 -5 5 -7 10 -4 6 3 10 8 10 11 0 2 -4 4 -10 4 -5 0 -10
-5 -10 -11z"/>
<path d="M1841 604 c0 -11 3 -14 6 -6 3 7 2 16 -1 19 -3 4 -6 -2 -5 -13z"/>
</g>
</svg>
